<?xml version="1.0" standalone="no"?>
<!DOCTYPE svg PUBLIC "-//W3C//DTD SVG 20010904//EN"
 "http://www.w3.org/TR/2001/REC-SVG-20010904/DTD/svg10.dtd">
<svg version="1.0" xmlns="http://www.w3.org/2000/svg"
 width="521.000000pt" height="166.000000pt" viewBox="0 0 521.000000 166.000000"
 preserveAspectRatio="xMidYMid meet">

<g transform="translate(0.000000,166.000000) scale(0.100000,-0.100000)"
fill="#000000" stroke="none">
<path d="M2310 1243 c0 -203 5 -397 10 -433 34 -218 222 -385 468 -414 l52 -7
0 85 0 84 -42 7 c-123 21 -217 86 -265 183 -28 56 -28 60 -28 242 l0 185 168
3 167 2 0 85 0 85 -167 2 -168 3 -3 128 -3 127 -94 0 -95 0 0 -367z"/>
<path d="M4544 1350 c-67 -10 -139 -34 -193 -65 -23 -14 -47 -25 -52 -25 -5 0
-9 20 -9 45 l0 45 -95 0 -95 0 0 -475 0 -475 94 0 95 0 3 273 c3 259 4 274 26
322 31 68 93 128 166 161 50 23 75 28 141 28 69 1 89 -4 145 -30 74 -35 131
-89 163 -154 21 -43 22 -59 25 -322 l3 -278 95 0 94 0 0 248 c0 279 -7 342
-49 427 -95 192 -333 310 -557 275z"/>
<path d="M432 1330 c-250 -67 -412 -298 -372 -527 16 -95 53 -165 126 -243
107 -113 230 -164 394 -164 110 0 184 19 278 70 56 31 62 32 62 14 0 -42 -42
-128 -84 -172 -23 -25 -69 -58 -102 -74 -52 -26 -70 -29 -154 -29 -83 0 -102
3 -151 28 -31 15 -78 50 -103 77 l-47 50 -79 -36 c-44 -20 -80 -40 -80 -44 0
-23 90 -117 149 -155 83 -54 169 -83 264 -91 266 -23 522 153 567 391 7 41 10
199 8 489 l-3 429 -90 0 -90 -1 -3 -46 c-2 -25 -6 -46 -9 -46 -4 0 -26 12 -50
26 -119 70 -294 92 -431 54z m298 -182 c68 -31 129 -89 161 -154 35 -71 34
-179 -3 -250 -33 -62 -94 -119 -162 -149 -208 -94 -453 32 -482 247 -18 131
74 265 219 319 74 28 192 22 267 -13z"/>
<path d="M1573 1336 c-255 -65 -425 -300 -386 -532 41 -238 258 -408 518 -407
169 1 279 45 393 158 39 40 72 77 72 82 0 5 -35 26 -78 47 l-78 38 -57 -55
c-74 -73 -143 -100 -252 -101 -121 -1 -211 46 -286 148 -16 21 -29 47 -29 58
0 17 18 18 420 18 l420 0 0 83 c0 207 -119 364 -337 447 -73 28 -242 36 -320
16z m282 -190 c33 -15 73 -39 89 -54 29 -27 86 -109 86 -124 0 -4 -146 -8
-325 -8 l-326 0 17 33 c43 83 105 136 197 169 75 27 183 20 262 -16z"/>
<path d="M3780 875 l0 -475 85 0 85 0 0 475 0 475 -85 0 -85 0 0 -475z"/>
<path d="M3415 1215 c-26 -60 -10 -95 91 -199 l86 -88 -34 -37 c-102 -108
-118 -128 -118 -148 0 -29 26 -53 58 -53 20 0 47 20 108 83 134 136 130 163
-51 352 l-123 130 -17 -40z"/>
<path d="M3286 691 c-31 -32 -35 -40 -22 -50 11 -10 18 -5 37 26 13 21 27 41
32 44 5 4 5 9 0 12 -6 4 -26 -11 -47 -32z"/>
</g>
</svg>
